<svg xmlns="http://www.w3.org/2000/svg" viewBox="0 0 64 64" role="img" aria-label="SVGlance">
  <rect width="64" height="64" rx="15" fill="#d7d7d7"/>
  <path d="M0 0h16v16H0zM32 0h16v16H32zM16 16h16v16H16zM48 16h16v16H48zM0 32h16v16H0zM32 32h16v16H32zM16 48h16v16H16zM48 48h16v16H48z" fill="#adadad"/>
  <rect x="13" y="16" width="38" height="32" rx="11" fill="#fff" fill-opacity=".94"/>
  <path d="M13 32s7-11 19-11 19 11 19 11-7 11-19 11-19-11-19-11Z" fill="#fff" stroke="#141518" stroke-width="4" stroke-linejoin="round"/>
  <circle cx="32" cy="32" r="7" fill="#141518"/>
  <circle cx="35" cy="29" r="2.5" fill="#e97924"/>
</svg>
